<?xml version="1.0" standalone="no"?><!DOCTYPE svg PUBLIC "-//W3C//DTD SVG 1.1//EN" "http://www.w3.org/Graphics/SVG/1.1/DTD/svg11.dtd"><svg t="1742540260799" class="icon" viewBox="0 0 1024 1024" version="1.1" xmlns="http://www.w3.org/2000/svg" p-id="1040" width="22" height="22" xmlns:xlink="http://www.w3.org/1999/xlink"><path d="M512.007 128c69.154 0 125.215 56.06 125.215 125.215 0 21.898-5.622 42.484-15.5 60.392l79.441 99.782 138.91-56.648c32.268-13.16 69.096 2.332 82.255 34.601a63.1 63.1 0 0 1 2.956 38.443L832.633 818.92c-9.94 41.749-47.243 71.212-90.159 71.212H281.54c-42.916 0-80.218-29.463-90.158-71.212L98.73 429.785c-8.072-33.902 12.868-67.928 46.77-76a63.1 63.1 0 0 1 38.442 2.956l138.91 56.648 79.441-99.781c-9.567-17.343-15.141-37.197-15.484-58.323l-0.016-2.07c0-69.154 56.06-125.215 125.214-125.215z" fill="#EB611B" p-id="1041"></path><path d="M512.007 192c-33.47 0-60.666 26.861-61.206 60.202l-0.008 0.872 0.011 1.367 0.014 0.567c0.272 9.622 2.735 18.78 7.16 27.037l0.354 0.65 10.31 18.69a32 32 0 0 1-2.985 35.388L357.993 472a32 32 0 0 1-37.118 9.7l-159.481-65.038 92.247 387.434c3.045 12.786 14.382 21.848 27.489 22.036H742.474c13.143 0 24.585-8.93 27.801-21.638l0.098-0.398 92.246-387.434-159.48 65.037a32 32 0 0 1-37.118-9.7L558.358 336.772a32 32 0 0 1-2.985-35.387l10.31-18.69c4.928-8.934 7.539-18.944 7.539-29.48 0-33.807-27.407-61.214-61.215-61.214z" fill="#FFC294" p-id="1042"></path><path d="M332.326 581.83l0.127 0.514L372.609 751h-65.79l-36.626-153.832c-4.093-17.193 6.525-34.449 23.718-38.542 17.02-4.052 34.103 6.315 38.415 23.204z" fill="#EB611B" p-id="1043"></path></svg>