<svg xmlns="http://www.w3.org/2000/svg"  viewBox="0 0 64 64" width="20px" height="20px"><path fill="#8b6d9d" d="M20.655,58.416c0.391,0.391,1.023,0.391,1.414,0l1.414-1.414c0.391-0.391,0.391-1.023,0-1.414 c-0.391-0.391-1.023-0.391-1.414,0l-1.414,1.414C20.264,57.393,20.264,58.025,20.655,58.416z M24.191,61.951 c0.391,0.391,1.023,0.391,1.414,0l1.414-1.414c0.391-0.391,0.391-1.023,0-1.414c-0.391-0.391-1.023-0.391-1.414,0l-1.414,1.414 C23.8,60.928,23.8,61.56,24.191,61.951z M17.12,54.88c0.391,0.391,1.023,0.391,1.414,0l1.414-1.414 c0.391-0.391,0.391-1.023,0-1.414c-0.391-0.391-1.023-0.391-1.414,0l-1.414,1.414C16.729,53.857,16.729,54.489,17.12,54.88z M13.584,51.345c0.391,0.391,1.023,0.391,1.414,0l1.414-1.414c0.391-0.391,0.391-1.023,0-1.414 c-0.391-0.391-1.023-0.391-1.414,0l-1.414,1.414C13.193,50.322,13.193,50.954,13.584,51.345z"/><path fill="#8b6d9d" d="M10.049,47.809c0.391,0.391,1.023,0.391,1.414,0l1.414-1.414c0.391-0.391,0.391-1.023,0-1.414 c-0.391-0.391-1.023-0.391-1.414,0l-1.414,1.414C9.658,46.786,9.658,47.418,10.049,47.809z"/><path fill="#f7e1b0" d="M32.71,23.16l8.13,8.13c0.39,0.39,0.39,1.03,0,1.42l-8.13,8.13c-0.2,0.19-0.45,0.29-0.71,0.29 s-0.51-0.1-0.71-0.29l-8.13-8.13c-0.39-0.39-0.39-1.03,0-1.42l8.13-8.13C31.68,22.77,32.32,22.77,32.71,23.16z"/><path fill="#f7e1b0" d="M50.77,42.64L32.71,60.71C32.51,60.9,32.26,61,32,61s-0.51-0.1-0.71-0.29L13.23,42.64 c-0.39-0.39-0.39-1.02,0-1.41L20,34.45c0.39-0.39,1.03-0.39,1.42,0L32,45.04l10.58-10.59c0.39-0.39,1.03-0.39,1.42,0l6.77,6.78 C51.16,41.62,51.16,42.25,50.77,42.64z"/><path fill="#f7e1b0" d="M18.26,32.71l-6.78,6.77c-0.19,0.2-0.45,0.29-0.71,0.29c-0.25,0-0.51-0.09-0.7-0.29l-6.78-6.77 c-0.39-0.39-0.39-1.03,0-1.42l6.78-6.77c0.39-0.39,1.02-0.39,1.41,0l6.78,6.77C18.65,31.68,18.65,32.32,18.26,32.71z"/><path fill="#f7e1b0" d="M50.77,22.77L44,29.55c-0.2,0.19-0.45,0.29-0.71,0.29s-0.51-0.1-0.71-0.29L32,18.96L21.42,29.55 c-0.39,0.39-1.03,0.39-1.42,0l-6.77-6.78c-0.39-0.39-0.39-1.02,0-1.41L31.29,3.29c0.39-0.39,1.03-0.39,1.42,0l18.06,18.07 C51.16,21.75,51.16,22.38,50.77,22.77z"/><path fill="#f7e1b0" d="M60.71,32.71l-6.78,6.77c-0.19,0.2-0.45,0.29-0.7,0.29c-0.26,0-0.52-0.09-0.71-0.29l-6.78-6.77 c-0.39-0.39-0.39-1.03,0-1.42l6.78-6.77c0.39-0.39,1.02-0.39,1.41,0l6.78,6.77C61.1,31.68,61.1,32.32,60.71,32.71z"/><path fill="#8b6d9d" d="M32,41.129c-0.256,0-0.512-0.098-0.707-0.293l-8.129-8.129c-0.391-0.391-0.391-1.023,0-1.414 l8.129-8.129c0.391-0.391,1.023-0.391,1.414,0l8.129,8.129c0.391,0.391,0.391,1.023,0,1.414l-8.129,8.129 C32.512,41.031,32.256,41.129,32,41.129z M25.285,32L32,38.715L38.715,32L32,25.285L25.285,32z"/><path fill="#8b6d9d" d="M32,41.129c-0.256,0-0.512-0.098-0.707-0.293l-8.129-8.129c-0.391-0.391-0.391-1.023,0-1.414 l8.129-8.129c0.391-0.391,1.023-0.391,1.414,0l8.129,8.129c0.391,0.391,0.391,1.023,0,1.414l-8.129,8.129 C32.512,41.031,32.256,41.129,32,41.129z M25.285,32L32,38.715L38.715,32L32,25.285L25.285,32z"/><path fill="#8b6d9d" d="M10.774,39.774c-0.256,0-0.512-0.098-0.707-0.293l-6.774-6.774c-0.391-0.391-0.391-1.023,0-1.414 l6.774-6.774c0.391-0.391,1.023-0.391,1.414,0l6.774,6.774c0.391,0.391,0.391,1.023,0,1.414l-6.774,6.774 C11.286,39.677,11.03,39.774,10.774,39.774z M5.414,32l5.36,5.36l5.36-5.36l-5.36-5.36L5.414,32z"/><g><path fill="#8b6d9d" d="M32,41.129c-0.256,0-0.512-0.098-0.707-0.293l-8.129-8.129c-0.391-0.391-0.391-1.023,0-1.414 l8.129-8.129c0.391-0.391,1.023-0.391,1.414,0l8.129,8.129c0.391,0.391,0.391,1.023,0,1.414l-8.129,8.129 C32.512,41.031,32.256,41.129,32,41.129z M25.285,32L32,38.715L38.715,32L32,25.285L25.285,32z"/></g><g><path fill="#8b6d9d" d="M43.29,29.839c-0.256,0-0.512-0.098-0.707-0.293L32,18.963L21.417,29.546 c-0.391,0.391-1.023,0.391-1.414,0l-6.774-6.774c-0.391-0.391-0.391-1.023,0-1.414L31.293,3.293c0.391-0.391,1.023-0.391,1.414,0 l18.064,18.064c0.391,0.391,0.391,1.023,0,1.414l-6.774,6.774C43.802,29.741,43.546,29.839,43.29,29.839z M32,16.549 c0.256,0,0.512,0.098,0.707,0.293L43.29,27.425l5.36-5.36L32,5.414l-16.65,16.65l5.36,5.36l10.583-10.583 C31.488,16.646,31.744,16.549,32,16.549z"/></g><g><path fill="#8b6d9d" d="M32,61c-0.256,0-0.512-0.098-0.707-0.293L13.229,42.643c-0.391-0.391-0.391-1.023,0-1.414 l6.774-6.774c0.391-0.391,1.023-0.391,1.414,0L32,45.037l10.583-10.583c0.391-0.391,1.023-0.391,1.414,0l6.774,6.774 c0.391,0.391,0.391,1.023,0,1.414L32.707,60.707C32.512,60.902,32.256,61,32,61z M15.35,41.936L32,58.586l16.65-16.65l-5.36-5.36 L32.707,47.158c-0.391,0.391-1.023,0.391-1.414,0L20.71,36.575L15.35,41.936z"/></g><g><path fill="#8b6d9d" d="M53.226,39.774c-0.256,0-0.512-0.098-0.707-0.293l-6.774-6.774c-0.391-0.391-0.391-1.023,0-1.414 l6.774-6.774c0.391-0.391,1.023-0.391,1.414,0l6.774,6.774c0.391,0.391,0.391,1.023,0,1.414l-6.774,6.774 C53.737,39.677,53.481,39.774,53.226,39.774z M47.865,32l5.36,5.36l5.36-5.36l-5.36-5.36L47.865,32z"/></g></svg>