<?xml version="1.0" standalone="no"?><!DOCTYPE svg PUBLIC "-//W3C//DTD SVG 1.1//EN" "http://www.w3.org/Graphics/SVG/1.1/DTD/svg11.dtd"><svg t="1743512584649" class="icon" viewBox="0 0 1024 1024" version="1.1" xmlns="http://www.w3.org/2000/svg" p-id="1930" xmlns:xlink="http://www.w3.org/1999/xlink" width="20" height="20"><path d="M919 571.2s-20.31-27-65.53-16.21h0.11c13.72-226.33-149.36-362.35-333.74-362.35S186 342.11 186 526.5c0 98.28 40.34 194.79 114.83 248.69l3.92-1.57a25.37 25.37 0 0 0 8 10.83l103.52 83s41.64 38.54 87.94 7.34L893.7 649.41s58.07-34.34 25.3-78.21z" fill="#B9D6F9" p-id="1931"></path><path d="M404.31 875.21a97.59 97.59 0 0 1-32.65-5.8 113.29 113.29 0 0 1-35.16-20.27l-103-82.59a53.11 53.11 0 0 1-18-55.51A52.08 52.08 0 0 1 259 672.7c42.87-6.08 85.31 6.25 106.79 14.14a3.12 3.12 0 0 0 2.56-0.14l62.52-32.7-136.61-97.83-0.41-0.3c-12.72-9.47-19.92-25-19.73-42.52 0.2-19.89 9.58-38.83 24.46-49.43 22.46-16 51.78-20.48 84.8-13a172.25 172.25 0 0 1 39.95 14.47l178.45 85.93a45.32 45.32 0 0 0 36 1.39l118.89-54.06 1.1-0.47c0.78-0.31 1.45-0.55 2-0.72 39.37-17.14 68.68-12.55 86.38-5.65 20.44 8 30.95 21 32.84 23.49 16.74 22.38 17 43.31 14.28 56.94-7.35 36.79-43.42 59.06-47.5 61.48l-0.23 0.13-388.79 225c-16.53 10.86-34.25 16.36-52.44 16.36z m-31.5-67.38a58.27 58.27 0 0 0 18.6 10.2c12.65 4.07 23.9 2.36 35.39-5.38 0.52-0.35 1.05-0.68 1.6-1L817.7 586.4c6.29-3.87 19.65-14.92 21.6-25 0.32-1.69 1.08-5.58-3.95-12.54-2.46-2.63-17.91-16.74-54.22-0.73-1.11 0.49-2.08 0.85-2.78 1.09l-118.42 53.84c-0.36 0.17-0.73 0.33-1.1 0.48a100.4 100.4 0 0 1-80.91-2.66L399 514.71c-0.45-0.22-0.73-0.35-1.15-0.59-1.45-0.75-43.46-22-67.07-5.58a10.43 10.43 0 0 0-1.64 4.94l148.08 106a44.17 44.17 0 0 1-5.25 75.06l-78.11 40.87a58.3 58.3 0 0 1-47 3c-15.76-5.79-45.79-14.71-75.24-11.89l99.87 80.08c0.56 0.56 0.79 0.73 1.32 1.23zM835 548.32s0.11 0.17 0.28 0.38z" fill="#1060C1" p-id="1932"></path><path d="M238.8 763.34a27.39 27.39 0 0 1-16.1-5.23c-39.7-28.73-72.31-69.77-94.3-118.7-20.87-46.41-31.9-99.08-31.9-152.27a361.36 361.36 0 1 1 722.71 0 27.5 27.5 0 0 1-55 0 306.36 306.36 0 0 0-612.71 0c0 45.48 9.36 90.33 27.06 129.72C196.62 657 223 690.46 255 713.55a27.51 27.51 0 0 1-16.15 49.79z" fill="#1060C1" p-id="1933"></path><path d="M200.22 452.81c-19.58 0-37.68-4.95-49.74-8.25-2.24-0.61-5.18-1.42-6.68-1.76a27.5 27.5 0 0 1 0.68-54.93c6.35-0.23 12.29 1.39 20.51 3.64 38.53 10.54 50.71 6.58 57.15-2.6 4-5.64 4.15-12.34 4.18-23.7 0-16.57 0.1-44.32 28.31-62.66 17.21-11.18 34.77-13.81 52.18-7.79 13.07 4.52 23.35 13.16 32.43 20.78 9.68 8.12 18 15.13 27.15 15.9 26.06 2.21 34.05-3.1 35.87-4.78 2.12-1.94 3.19-5.92 3.19-11.84 0-4.21-0.58-7.73-7.87-11.39a48.93 48.93 0 0 0-16.27-4.43c-0.57 0-1.14 0-1.71-0.09h-0.08c-21.57-1.77-39.4-12.23-51.57-30.25-8.95-13.28-13.55-28.36-17.6-41.66-1-3.31-2-6.43-2.92-9.34a27.5 27.5 0 1 1 52.21-17.28c1.17 3.53 2.26 7.12 3.32 10.59 8.29 27.19 12.13 32.15 20.35 33.06a103.06 103.06 0 0 1 37.17 9.39c25.4 12 40 34.42 40 61.41 0 27.34-11.41 43.55-21 52.34-17.21 15.82-42.64 22.06-77.74 19.08-26.48-2.24-44.61-17.46-57.86-28.58-4.63-3.88-12.34-10.35-15.26-11a14.09 14.09 0 0 0-4 2c-2.62 1.71-3.25 2.11-3.28 16.67 0 14.8-0.08 35.07-14.15 55.14-10.19 14.52-29.82 31.9-65.59 32.33zM381.83 299a25.45 25.45 0 0 0 13.56-3.58 27.29 27.29 0 0 1-13.54 3.58zM671.41 442.38A27.51 27.51 0 0 1 646.19 404c8.14-18.8 7.21-26.63 6.75-28.55-2.33-0.9-7.92-1.76-11.75-2.34-10.21-1.57-22.91-3.51-35.75-10.55-36.38-19.93-52.8-68.39-50.22-148.14a27.5 27.5 0 1 1 55 1.77c-1.11 34.18 1.58 60.55 8 78.38 3.65 10.13 8.25 16.78 13.68 19.76 4.33 2.37 10.8 3.36 17.65 4.41 14.55 2.23 34.49 5.28 48.11 24.38 14.4 20.17 14.07 48-1 82.73a27.5 27.5 0 0 1-25.25 16.53z" fill="#1060C1" p-id="1934"></path></svg>