<svg xmlns="http://www.w3.org/2000/svg"  viewBox="0 0 100 100" width="20px" height="20px"><path fill="#375ca9" d="M70.51,36.37c-1.07,0.06-2.13,0.21-3.17,0.43c-4.3-4.2-8.42-5.8-14.68-5.8 c-4.4,0-6.92,0.6-10.82,2.57l-0.11,0.06c-4.2,2.26-7.85,6.92-9.78,12.49c-0.05,0.13-0.1,0.26-0.15,0.39 c-5.46,1.68-9.72,5.3-11.58,9.86c-0.93,2.2-1.26,3.99-1.26,6.84c0,2.38,0.32,4.6,0.95,6.62c-2.29-0.06-4.2-0.15-4.6-0.26 c-3.29-0.77-6.73-3.64-8.29-6.95c-1-1.79-1-2.49-1-5.42c0-2.72,0-3.68,1.07-5.22c1.53-3.15,4.53-5.51,8.25-6.49 c0.07-0.01,0.13-0.03,0.19-0.05c0.03-0.29,0.06-0.64,0.06-1c0.18-6.36,4.46-12.11,10.4-14.02c2.89-1.03,7.05-0.85,10.56,0.48 c0.29-0.37,0.72-0.94,1.19-1.57c1.27-1.8,3.93-4.01,6.31-5.2c2.3-1.24,4.92-1.85,7.97-1.85c8.26,0,15.41,5.18,18.21,13.22 C70.33,35.79,70.43,36.08,70.51,36.37z"/><path fill="#1f212b" d="M19.91,70.83c-0.009,0-0.018,0-0.026,0c-4.162-0.109-4.654-0.245-4.84-0.296 c-3.558-0.832-7.244-3.915-8.929-7.487C5.02,61.09,5.02,60.188,5.02,57.2c0-2.791,0-3.965,1.205-5.727 c1.596-3.231,4.621-5.689,8.361-6.811c0.002-0.073,0.004-0.148,0.004-0.223c0.191-6.788,4.753-12.933,11.095-14.972 c2.896-1.032,6.959-0.929,10.515,0.247c0.222-0.291,0.474-0.627,0.74-0.983c1.358-1.927,4.168-4.248,6.663-5.496 c2.432-1.311,5.193-1.956,8.417-1.956c8.696,0,16.216,5.453,19.155,13.891c0.107,0.314,0.214,0.624,0.299,0.933 c0.08,0.292,0.024,0.604-0.151,0.849c-0.177,0.246-0.454,0.398-0.757,0.416c-0.976,0.055-1.992,0.192-3.019,0.41 c-0.333,0.068-0.667-0.03-0.905-0.263C62.578,33.546,58.658,32,52.66,32c-4.262,0-6.587,0.552-10.369,2.462l-0.079,0.044 c-3.989,2.147-7.47,6.609-9.316,11.941l-0.162,0.42c-0.11,0.287-0.346,0.507-0.64,0.598c-5.204,1.602-9.195,4.985-10.948,9.283 c-0.877,2.074-1.186,3.762-1.186,6.462c0,2.27,0.305,4.397,0.905,6.322c0.096,0.308,0.037,0.644-0.157,0.901 C20.519,70.684,20.223,70.83,19.91,70.83z M15.552,46.468c-3.413,0.911-6.167,3.077-7.563,5.949 c-0.022,0.046-0.049,0.091-0.078,0.134C7.02,53.833,7.02,54.546,7.02,57.2c0,2.855,0,3.37,0.873,4.932 c1.45,3.071,4.652,5.763,7.645,6.464c0.074,0.018,0.532,0.107,3.051,0.194c-0.417-1.748-0.628-3.618-0.628-5.58 c0-2.999,0.351-4.891,1.339-7.229c1.922-4.712,6.187-8.44,11.738-10.277c2.001-5.737,5.822-10.588,10.22-12.954l0.102-0.056 C45.452,30.625,48.085,30,52.66,30c6.396,0,10.648,1.61,14.996,5.717c0.506-0.095,1.009-0.172,1.507-0.231 C66.428,28.06,59.735,23.28,52.02,23.28c-2.884,0-5.335,0.566-7.495,1.73c-2.226,1.113-4.779,3.212-5.967,4.896 c-0.492,0.66-0.928,1.236-1.221,1.61c-0.27,0.345-0.731,0.474-1.142,0.318c-3.246-1.23-7.212-1.418-9.869-0.473 c-5.578,1.794-9.569,7.179-9.736,13.106c0,0.368-0.032,0.753-0.064,1.072c-0.04,0.393-0.307,0.725-0.682,0.849 C15.748,46.421,15.654,46.449,15.552,46.468z"/><path fill="#375ca9" d="M86.729,77.003H61.088c-20.593,0-26.127,0-27.509-0.198c-0.075-0.011-0.152-0.027-0.226-0.047 c-5.971-1.668-9.396-6.606-9.396-13.547c0-2.186,0.201-3.328,0.862-4.891c1.465-3.593,5.164-6.374,9.885-7.411 c0.687-0.19,1.069-0.328,1.273-0.421c0.048-0.723,0.301-1.738,0.66-2.641c1.519-4.421,4.319-8.121,7.463-9.816 c3.195-1.615,4.947-2.029,8.562-2.029c5.379,0,8.313,1.283,12.069,5.282l1.149,1.162l0.554-0.187 c1.714-0.616,3.507-0.935,5.293-0.935c7.43,0,13.29,5.324,13.936,12.659l0.081,0.984l0.484,0.163 c5.449,1.907,8.103,6.12,7.687,12.193c-0.446,4.287-2.327,7.44-5.3,8.944l-1.076,0.544C87.288,76.937,87.009,77.003,86.729,77.003z"/><path fill="#1f212b" d="M86.729,78.003h-25.64c-21.169,0-26.198,0-27.651-0.208c-0.116-0.017-0.234-0.042-0.348-0.072 c-6.44-1.799-10.132-7.088-10.132-14.512c0-2.313,0.229-3.596,0.941-5.281c1.588-3.896,5.55-6.89,10.591-7.998 c0.232-0.065,0.42-0.122,0.571-0.17c0.119-0.715,0.352-1.54,0.648-2.285c1.592-4.638,4.557-8.515,7.916-10.327 c3.341-1.689,5.278-2.148,9.037-2.148c5.638,0,8.866,1.413,12.797,5.598l0.692,0.699c1.805-0.645,3.687-0.975,5.576-0.975 c7.96,0,14.239,5.708,14.932,13.571l0.027,0.337c5.831,2.097,8.672,6.643,8.227,13.159c-0.484,4.647-2.56,8.104-5.847,9.768 l-1.077,0.544C87.597,77.901,87.162,78.003,86.729,78.003z M52.663,37.003c-3.466,0-5.058,0.377-8.111,1.921 c-2.904,1.567-5.518,5.029-6.968,9.249c-0.333,0.842-0.565,1.76-0.607,2.384c-0.025,0.368-0.25,0.692-0.586,0.844 c-0.304,0.137-0.78,0.296-1.419,0.473c-4.451,0.979-7.881,3.526-9.226,6.824c-0.612,1.449-0.788,2.458-0.788,4.514 c0,6.459,3.158,11.046,8.664,12.583c0.028,0.008,0.064,0.016,0.099,0.021c1.313,0.188,7.353,0.188,27.368,0.188h25.64 c0.126,0,0.252-0.03,0.364-0.085l1.071-0.542c2.659-1.346,4.35-4.243,4.758-8.156c0.383-5.618-1.979-9.379-7.023-11.145 l-0.474-0.159c-0.379-0.127-0.645-0.468-0.678-0.867l-0.08-0.984c-0.598-6.8-6.04-11.74-12.938-11.74 c-1.671,0-3.338,0.295-4.955,0.876L66.2,43.395c-0.359,0.122-0.76,0.028-1.03-0.245l-1.149-1.162 C60.428,38.164,57.778,37.003,52.663,37.003z"/><path fill="#1f212b" d="M84.5,73h-33c-0.276,0-0.5-0.224-0.5-0.5s0.224-0.5,0.5-0.5h33c0.276,0,0.5,0.224,0.5,0.5 S84.776,73,84.5,73z"/><path fill="#1f212b" d="M48.5,73h-6c-0.276,0-0.5-0.224-0.5-0.5s0.224-0.5,0.5-0.5h6c0.276,0,0.5,0.224,0.5,0.5 S48.776,73,48.5,73z"/><path fill="#1f212b" d="M39.5,73h-2c-0.276,0-0.5-0.224-0.5-0.5s0.224-0.5,0.5-0.5h2c0.276,0,0.5,0.224,0.5,0.5 S39.776,73,39.5,73z"/><path fill="#1f212b" d="M33.467,35.148c-0.039,0-0.079-0.004-0.118-0.014c-1.25-0.305-2.59-0.432-3.78-0.354 c-0.242,0.011-0.513-0.19-0.531-0.466c-0.018-0.276,0.19-0.514,0.467-0.532c1.278-0.085,2.733,0.051,4.081,0.38 c0.269,0.065,0.433,0.336,0.367,0.604C33.896,34.996,33.692,35.148,33.467,35.148z"/><path fill="#1f212b" d="M20.09,45.018c-0.005,0-0.011,0-0.017,0c-0.276-0.009-0.492-0.24-0.483-0.516 c0.142-4.283,2.845-8.276,6.727-9.937c0.252-0.11,0.548,0.01,0.656,0.263c0.108,0.254-0.01,0.548-0.264,0.656 c-3.531,1.511-5.99,5.148-6.119,9.051C20.581,44.805,20.358,45.018,20.09,45.018z"/></svg>