<?xml version="1.0" standalone="no"?><!DOCTYPE svg PUBLIC "-//W3C//DTD SVG 1.1//EN" "http://www.w3.org/Graphics/SVG/1.1/DTD/svg11.dtd"><svg t="1742898759850" class="icon" viewBox="0 0 1024 1024" version="1.1" xmlns="http://www.w3.org/2000/svg" p-id="22409" xmlns:xlink="http://www.w3.org/1999/xlink" width="20" height="20"><path d="M993.902742 372.477393a500.529532 500.529532 0 0 0-41.710794-96.351935 41.710794 41.710794 0 0 0-34.202851-21.272505 41.710794 41.710794 0 0 0-35.037068 17.101426 41.710794 41.710794 0 0 0 0 46.716089 417.107943 417.107943 0 0 1-163.089205 571.85499 417.107943 417.107943 0 0 1-617.736864-333.686354 426.701426 426.701426 0 0 1 33.785743-203.131568 417.107943 417.107943 0 0 1 463.406925-240.671283 411.268432 411.268432 0 0 1 125.132383 45.881873 41.710794 41.710794 0 0 0 27.946232 6.256619 41.710794 41.710794 0 0 0 12.513238-77.164969A493.021589 493.021589 0 0 0 407.031866 35.871283 500.529532 500.529532 0 0 0 18.704371 523.05336a488.016293 488.016293 0 0 0 12.096131 110.533605 500.529532 500.529532 0 0 0 983.957637-60.897759 488.016293 488.016293 0 0 0-20.855397-200.211813" fill="#325AB4" p-id="22410"></path><path d="M306.091744 522.219145m-67.988595 0a67.988595 67.988595 0 1 0 135.97719 0 67.988595 67.988595 0 1 0-135.97719 0Z" fill="#325AB4" p-id="22411"></path><path d="M517.982579 522.219145m-67.988594 0a67.988595 67.988595 0 1 0 135.977189 0 67.988595 67.988595 0 1 0-135.977189 0Z" fill="#325AB4" p-id="22412"></path><path d="M729.873414 522.219145m-67.988594 0a67.988595 67.988595 0 1 0 135.977189 0 67.988595 67.988595 0 1 0-135.977189 0Z" fill="#00C8D2" p-id="22413"></path></svg>