<?xml version="1.0" standalone="no"?><!DOCTYPE svg PUBLIC "-//W3C//DTD SVG 1.1//EN" "http://www.w3.org/Graphics/SVG/1.1/DTD/svg11.dtd"><svg t="1742898584094" class="icon" viewBox="0 0 1024 1024" version="1.1" xmlns="http://www.w3.org/2000/svg" p-id="9746" xmlns:xlink="http://www.w3.org/1999/xlink" width="20" height="20"><path d="M455.168 712.934c-34.56 0-62.592 17.87-62.592 39.91h125.158c0.026-22.04-28.006-39.91-62.566-39.91z" fill="#1AC678" p-id="9747"></path><path d="M713.523 91.75h-516.71a42.547 42.547 0 0 0 0 85.018h18.483v68.813a240.256 240.256 0 0 0 149.58 222.08 240.256 240.256 0 0 0-149.58 222.08v61.619h-18.534a41.472 41.472 0 0 0-29.876 12.416 41.549 41.549 0 0 0-12.62 30.08c0 23.45 19.072 42.496 42.496 42.496h331.955a9.6 9.6 0 0 0 0-19.2H196.762a23.296 23.296 0 0 1-23.296-23.296c0-6.246 2.406-12.032 6.988-16.486a22.528 22.528 0 0 1 16.308-6.81h323.763a9.6 9.6 0 0 0 0-19.2H234.496v-61.62c0-99.2 66.688-186.726 162.202-212.812a9.574 9.574 0 0 0 3.02-1.51l0.256-0.128a9.42 9.42 0 0 0 3.124-4.608c0.076-0.205 0.281-0.282 0.332-0.487s0-0.41 0.052-0.614c0.128-0.64 0.128-1.255 0.128-1.92 0-0.666 0-1.28-0.128-1.92-0.052-0.205 0.025-0.41-0.052-0.615-0.102-0.384-0.358-0.64-0.512-0.998a9.318 9.318 0 0 0-0.921-1.818 8.78 8.78 0 0 0-1.101-1.28 8.909 8.909 0 0 0-1.485-1.28 9.19 9.19 0 0 0-1.587-0.793c-0.384-0.18-0.717-0.461-1.126-0.563C301.21 432.307 234.496 344.78 234.496 245.58v-68.813h441.42v68.813c0 99.2-66.687 186.726-162.2 212.813-0.436 0.128-0.743 0.41-1.153 0.588a8.602 8.602 0 0 0-3.097 2.1 8.064 8.064 0 0 0-1.997 3.097c-0.128 0.333-0.384 0.615-0.487 0.973-0.05 0.205 0 0.41-0.05 0.614-0.129 0.64-0.129 1.255-0.129 1.92 0 0.64 0 1.28 0.128 1.895 0.051 0.205-0.025 0.41 0.051 0.614 0.052 0.205 0.256 0.307 0.333 0.487a9.472 9.472 0 0 0 3.098 4.582c0.077 0.077 0.205 0.077 0.281 0.154a9.574 9.574 0 0 0 3.021 1.51 221.466 221.466 0 0 1 136.32 108.98 9.6 9.6 0 0 0 16.922-9.038 240.922 240.922 0 0 0-121.395-109.184 240.23 240.23 0 0 0 149.555-222.08v-68.838h18.406a42.547 42.547 0 0 0 0-85.018z m0 65.818h-516.71a23.347 23.347 0 0 1 0-46.618h516.685a23.296 23.296 0 0 1 0.025 46.618z" fill="#008CFF" p-id="9748"></path><path d="M625.587 245.427H284.75a170.42 170.42 0 0 0 340.838 0z" fill="#1AC678" p-id="9749"></path><path d="M455.168 739.251a16.46 16.46 0 0 1-16.46-16.46V360.882a16.46 16.46 0 0 1 32.92 0V722.79a16.46 16.46 0 0 1-16.46 16.461z" fill="#1AC678" p-id="9750"></path><path d="M706.816 932.25c-89.83 0-162.918-73.088-162.918-162.919s73.088-162.918 162.918-162.918S869.734 679.5 869.734 769.33 796.672 932.25 706.816 932.25z m0-306.663c-79.258 0-143.718 64.487-143.718 143.719s64.486 143.718 143.718 143.718 143.718-64.486 143.718-143.718-64.46-143.719-143.718-143.719z" fill="#008CFF" p-id="9751"></path><path d="M706.816 884.173c-63.334 0-114.867-51.533-114.867-114.867s51.533-114.868 114.867-114.868a6.4 6.4 0 0 1 0 12.8c-56.269 0-102.067 45.799-102.067 102.068s45.798 102.067 102.067 102.067 102.067-45.799 102.067-102.067a6.4 6.4 0 0 1 12.8 0 114.995 114.995 0 0 1-114.867 114.867z" fill="#00CFFF" p-id="9752"></path><path d="M706.816 778.906a9.6 9.6 0 0 1-9.6-9.6v-58.343a9.6 9.6 0 0 1 19.2 0v58.343a9.6 9.6 0 0 1-9.6 9.6z" fill="#008CFF" p-id="9753"></path><path d="M765.158 778.906h-58.342a9.6 9.6 0 0 1 0-19.2h58.342a9.6 9.6 0 0 1 0 19.2z" fill="#008CFF" p-id="9754"></path></svg>