<?xml version="1.0" standalone="no"?><!DOCTYPE svg PUBLIC "-//W3C//DTD SVG 1.1//EN" "http://www.w3.org/Graphics/SVG/1.1/DTD/svg11.dtd"><svg t="1743144464432" class="icon" viewBox="0 0 1024 1024" version="1.1" xmlns="http://www.w3.org/2000/svg" p-id="8098" width="20" height="20" xmlns:xlink="http://www.w3.org/1999/xlink"><path d="M485.209555 996.149783c-150.603074-112.611746-260.793063-349.136776-260.793063-554.986204 0-225.728025 131.481277-332.991723 307.411904-441.062672 1.614505 225.728025 133.802128 382.890028 324.06149 467.09657A837.524635 837.524635 0 0 0 485.209555 996.149783z m0 0" fill="#ee591a" p-id="8099"></path><path d="M664.621458 639.84864a446.864801 446.864801 0 0 0 207.665747-100.906582q1.009066 4.540796 1.866772 9.132045A392.072527 392.072527 0 1 1 104.589925 697.567205c-21.745369-111.854947-31.58376-178.856918 27.59795-264.829326 90.916831 182.489555 327.139141 246.968861 532.433583 207.110761z m0 0" fill="#ee591a" p-id="8100"></path><path d="M88.798045 546.459598a372.698463 372.698463 0 0 0 309.076862 166.092235 380.16555 380.16555 0 0 0 375.523847-384.655893 393.939298 393.939298 0 0 0-13.420575-102.218368 437.581395 437.581395 0 0 1 176.586519 353.173039 424.614899 424.614899 0 1 1-849.027985 0q0-16.296413 1.160425-32.290106z m0 0" fill="#ee591a" p-id="8101"></path></svg>