<?xml version="1.0" standalone="no"?><!DOCTYPE svg PUBLIC "-//W3C//DTD SVG 1.1//EN" "http://www.w3.org/Graphics/SVG/1.1/DTD/svg11.dtd"><svg t="1742898659559" class="icon" viewBox="0 0 1280 1024" version="1.1" xmlns="http://www.w3.org/2000/svg" p-id="14750" xmlns:xlink="http://www.w3.org/1999/xlink" width="25" height="20"><path d="M1280 170.666667c0-93.866667-76.8-170.666667-170.666667-170.666667H170.666667C76.8 0 0 76.8 0 170.666667v341.333333h1280V170.666667z" fill="#FF4B55" p-id="14751"></path><path d="M170.666667 1024h938.666666c93.866667 0 170.666667-76.8 170.666667-170.666667v-341.333333H0v341.333333c0 93.866667 76.8 170.666667 170.666667 170.666667z" fill="#F5F5F5" p-id="14752"></path><path d="M226.133333 251.733333c0-89.6 68.266667-166.4 153.6-179.2 4.266667 0 4.266667-8.533333 0-8.533333-21.333333-4.266667-42.666667-4.266667-68.266666-4.266667-93.866667 12.8-166.4 93.866667-166.4 187.733334 0 106.666667 85.333333 196.266667 192 196.266666 12.8 0 29.866667 0 42.666666-4.266666 4.266667 0 4.266667-8.533333 0-8.533334-85.333333-12.8-153.6-89.6-153.6-179.2z" fill="#F5F5F5" p-id="14753"></path><path d="M379.733333 298.666667l-4.266666 25.6h-25.6c-4.266667 0-4.266667 4.266667 0 4.266666l21.333333 17.066667-12.8 25.6c0 4.266667 4.266667 4.266667 4.266667 4.266667l21.333333-17.066667 21.333333 17.066667c4.266667 0 4.266667 0 4.266667-4.266667l-4.266667-25.6 21.333334-17.066667c4.266667 0 0-4.266667 0-4.266666h-25.6L388.266667 298.666667c0-4.266667-4.266667-4.266667-8.533334 0zM507.733333 298.666667l-8.533333 25.6h-25.6c-4.266667 0-4.266667 4.266667 0 4.266666l21.333333 17.066667-8.533333 25.6c0 4.266667 4.266667 4.266667 4.266667 4.266667l21.333333-17.066667 21.333333 17.066667c4.266667 0 4.266667 0 4.266667-4.266667l-8.533333-25.6 21.333333-17.066667c4.266667 0 0-4.266667 0-4.266666h-25.6l-8.533333-25.6c0-4.266667-4.266667-4.266667-8.533334 0zM448 102.4l-8.533333 25.6h-25.6c-4.266667 0-4.266667 4.266667 0 4.266667l21.333333 17.066666-12.8 25.6c0 4.266667 4.266667 4.266667 4.266667 4.266667l21.333333-17.066667 21.333333 12.8c4.266667 0 4.266667 0 4.266667-4.266666l-4.266667-21.333334 21.333334-17.066666c4.266667 0 0-4.266667 0-4.266667h-25.6l-8.533334-25.6c-4.266667-4.266667-8.533333-4.266667-8.533333 0zM345.6 179.2l-8.533333 21.333333h-25.6c-4.266667 0-4.266667 4.266667 0 4.266667l21.333333 17.066667-12.8 25.6c0 4.266667 4.266667 4.266667 4.266667 4.266666l21.333333-17.066666 21.333333 17.066666c4.266667 0 4.266667 0 4.266667-4.266666l-4.266667-25.6 21.333334-17.066667c4.266667 0 0-4.266667 0-4.266667h-25.6l-12.8-21.333333c0-4.266667-4.266667-4.266667-4.266667 0zM546.133333 179.2l-8.533333 25.6H512c-4.266667 0-4.266667 4.266667 0 4.266667l21.333333 17.066666-8.533333 25.6c0 4.266667 4.266667 4.266667 4.266667 4.266667l21.333333-17.066667 21.333333 17.066667c4.266667 0 4.266667 0 4.266667-4.266667l-8.533333-25.6 21.333333-17.066666c4.266667 0 0-4.266667 0-4.266667h-25.6l-8.533333-25.6c-4.266667-4.266667-8.533333-4.266667-8.533334 0z" fill="#F5F5F5" p-id="14754"></path><path d="M1109.333333 1024H170.666667c-93.866667 0-170.666667-76.8-170.666667-170.666667V170.666667c0-93.866667 76.8-170.666667 170.666667-170.666667h938.666666c93.866667 0 170.666667 76.8 170.666667 170.666667v682.666666c0 93.866667-76.8 170.666667-170.666667 170.666667zM170.666667 4.266667C76.8 4.266667 4.266667 76.8 4.266667 170.666667v682.666666c0 93.866667 76.8 166.4 166.4 166.4h938.666666c93.866667 0 166.4-76.8 166.4-166.4V170.666667c0-93.866667-76.8-166.4-166.4-166.4H170.666667z" fill="#AEB4B8" p-id="14755"></path></svg>