<?xml version="1.0" standalone="no"?><!DOCTYPE svg PUBLIC "-//W3C//DTD SVG 1.1//EN" "http://www.w3.org/Graphics/SVG/1.1/DTD/svg11.dtd"><svg t="1742905132019" class="icon" viewBox="0 0 1195 1024" version="1.1" xmlns="http://www.w3.org/2000/svg" p-id="4781" xmlns:xlink="http://www.w3.org/1999/xlink" width="23.33984375" height="20"><path d="M30.127581 0m70.620689 0l706.206897 0q70.62069 0 70.62069 70.62069l0 529.655172q0 70.62069-70.62069 70.62069l-706.206897 0q-70.62069 0-70.620689-70.62069l0-529.655172q0-70.62069 70.620689-70.62069Z" fill="#000094" p-id="4782"></path><path d="M524.472408 497.275586a73.551448 73.551448 0 1 1 0-147.102896 73.551448 73.551448 0 0 1 0 147.102896z m19.632552-181.459862H504.839857L524.472408 247.172414l19.632552 68.64331z m-39.265103 215.816828h39.265103L524.472408 600.275862l-19.632551-68.64331z m90.571034-191.523311l-33.968552-19.632551L612.74827 270.830345l-17.337379 69.278896zM453.498615 507.339034l33.968552 19.632552L436.196546 576.617931l17.33738-69.278897z m174.185931-120.584827l-19.632552-33.968552L677.366201 335.448276l-49.646344 51.305931zM421.22496 460.694069l19.632552 33.968552L371.578615 512l49.646345-51.305931z m211.155862-17.337379V404.091586L701.024132 423.724138l-68.64331 19.632552zM416.563994 404.091586v39.265104L347.920684 423.724138l68.64331-19.632552z m191.523311 90.571035l19.632552-33.968552L677.366201 512l-69.278896-17.337379zM440.857512 352.750345l-19.632552 33.968552L371.578615 335.448276l69.278897 17.337379z m120.584827 174.185931l33.968552-19.632552 17.337379 69.278897-51.305931-49.646345zM487.502477 320.47669l-33.968551 19.632551L436.196546 270.830345l51.305931 49.646345z" fill="#FFFFFF" p-id="4783"></path></svg>