<?xml version="1.0" standalone="no"?><!DOCTYPE svg PUBLIC "-//W3C//DTD SVG 1.1//EN" "http://www.w3.org/Graphics/SVG/1.1/DTD/svg11.dtd"><svg t="1742898701984" class="icon" viewBox="0 0 1024 1024" version="1.1" xmlns="http://www.w3.org/2000/svg" p-id="17996" xmlns:xlink="http://www.w3.org/1999/xlink" width="20" height="20"><path d="M1008.862 512c0-273.553-221.075-495.412-494.182-496.862h-5.248c-273.218 1.452-494.295 223.309-494.295 496.862s221.075 495.412 494.182 496.862h5.248c273.218-1.452 494.295-223.309 494.295-496.862zM217.232 512c0-162.904 131.975-294.881 294.881-294.881 162.792 0 294.768 131.975 294.768 294.881 0 162.792-131.975 294.768-294.768 294.768-162.904 0-294.881-131.975-294.881-294.768z" fill="#FFFFFF" p-id="17997"></path><path d="M806.768 512c0-162.904-131.975-294.881-294.768-294.881-162.792 0.114-294.768 132.089-294.768 294.881s131.975 294.768 294.881 294.768c162.681 0 294.656-131.975 294.656-294.768z" fill="#EB0000" p-id="17998"></path></svg>