<?xml version="1.0" standalone="no"?><!DOCTYPE svg PUBLIC "-//W3C//DTD SVG 1.1//EN" "http://www.w3.org/Graphics/SVG/1.1/DTD/svg11.dtd"><svg t="1742898719181" class="icon" viewBox="0 0 1024 1024" version="1.1" xmlns="http://www.w3.org/2000/svg" p-id="19450" xmlns:xlink="http://www.w3.org/1999/xlink" width="20" height="20"><path d="M520.819 317.484H976.99c-10.989-26.173-24.003-51.207-39.081-74.855H520.783v74.855h0.035z m354.503 543.827H148.677c27.31 28.307 57.75 53.448 90.929 74.855h544.646c33.32-21.407 63.76-46.549 91.07-74.855zM520.819 162.76h354.468c-27.311-28.307-57.75-53.448-90.929-74.855h-263.54v74.855z m0 309.306h493.652c-2.027-25.497-5.903-50.496-11.558-74.855H520.818v74.855z m493.58 79.94H9.599c2.027 25.497 5.903 50.496 11.558 74.855h981.685c5.654-24.324 9.637-49.359 11.558-74.855z m-37.373 154.617H46.975c10.989 26.173 24.003 51.207 39.081 74.855h851.889c15.078-23.683 28.093-48.718 39.081-74.855z" fill="#FFFFFF" p-id="19451"></path><path d="M784.359 87.905C708.046 38.867 617.793 9.778 520.819 8.178v79.727h263.54z m-263.54 154.724h417.232c-18.242-28.662-39.188-55.51-62.622-79.834H520.961v79.834h-0.142z m0 154.688h482.13c-6.472-27.524-15.078-54.266-25.817-79.834H520.819v79.834z m0 154.689h493.652c1.032-13.122 1.601-26.492 1.601-39.971 0-13.477-0.569-26.742-1.601-39.971H520.819v79.94z m482.024 74.748H21.158c6.472 27.524 15.078 54.266 25.817 79.834h930.016c10.775-25.568 19.38-52.167 25.853-79.834z m-64.898 154.724H86.056c18.242 28.662 39.188 55.51 62.622 79.834h726.645c23.434-24.359 44.38-51.065 62.622-79.834zM784.359 936.166H239.642c78.269 50.283 171.224 79.62 271.007 79.834h2.489c99.997-0.214 192.988-29.551 271.221-79.834z" fill="#EB0000" p-id="19452"></path><path d="M520.819 472.066V8.178c-2.489 0-4.979-0.106-7.467-0.106h-2.489c-63.76 0.106-124.818 12.127-180.861 33.96l4.41 13.691h22.439l-18.242 13.264 6.899 21.407-18.242-13.264-18.242 13.264 6.898-21.407-18.136-13.264C204.76 99.569 127.166 171.045 75.745 259.592l4.516 13.94h22.545l-18.207 13.264 7.006 21.407-18.242-13.264-18.242 13.264 6.899-21.407-0.675-0.463C38.906 330.962 22.94 379.324 14.69 430.282l2.17 6.579h22.545l-18.242 13.264 7.006 21.407-17.318-12.588c-1.813 17.424-2.845 35.205-2.845 53.128 0 13.477 0.569 26.742 1.601 39.971h511.218v-79.976zM91.603 525.869l-18.242-13.264-18.242 13.264 6.899-21.407-18.242-13.264h22.545l6.898-21.407 7.006 21.407h22.545l-18.242 13.264 7.077 21.407z m-7.006-130.366l7.006 21.407-18.242-13.264-18.35 13.371 6.899-21.407-18.242-13.264h22.545l6.898-21.407 7.006 21.407h22.545l-18.065 13.157z m63.512 54.479l6.898 21.407-18.242-13.264-18.242 13.264 6.899-21.407-18.242-13.264h22.545l7.006-21.407 7.006 21.407h22.545l-18.172 13.264z m0-108.851l6.898 21.407-18.207-13.229-18.242 13.229 6.898-21.407-18.242-13.264h22.545l7.006-21.407 7.006 21.407h22.545l-18.207 13.264z m0-108.922l6.898 21.407-18.207-13.264-18.242 13.264 6.898-21.407-18.242-13.264h22.545l7.041-21.407 7.006 21.407h22.545l-18.242 13.264z m70.445 293.66l-18.242-13.264-18.242 13.264 7.006-21.407-18.242-13.264h22.545l6.898-21.407 6.899 21.407h22.545l-18.242 13.264 7.077 21.407z m-7.005-130.366l7.006 21.407-18.242-13.264-18.242 13.371 7.006-21.407-18.242-13.264h22.545l6.898-21.407 6.899 21.407h22.545l-18.172 13.157z m0-108.815l7.006 21.407-18.242-13.264-18.242 13.264 7.006-21.407-18.242-13.264h22.545l6.898-21.407 6.899 21.407h22.545l-18.172 13.264z m0-108.851l7.006 21.407-18.242-13.264-18.242 13.264 7.006-21.407-18.242-13.264h22.545l6.898-21.407 6.899 21.407h22.545l-18.172 13.264z m63.546 272.145l7.006 21.407-18.242-13.264-18.35 13.264 7.006-21.407-18.242-13.264h22.545l6.899-21.407 7.006 21.407h22.545l-18.172 13.264z m0-108.851l7.006 21.407-18.242-13.264-18.242 13.264 7.006-21.407-18.242-13.264h22.545l6.899-21.407 7.006 21.407h22.545l-18.278 13.264z m0-108.922l7.006 21.407-18.242-13.264-18.242 13.264 7.006-21.407-18.242-13.264h22.545l6.899-21.407 7.006 21.407h22.545l-18.278 13.264z m0-108.85l7.006 21.407-18.242-13.264-18.242 13.264 7.006-21.407-18.35-13.264h22.545l6.934-21.372 7.006 21.407h22.545l-18.207 13.229z m70.411 402.51l-18.242-13.264-18.242 13.264 6.898-21.407-18.242-13.264h22.545l7.006-21.407 7.006 21.407h22.545l-18.242 13.264 6.97 21.407z m-6.9-130.366l6.899 21.514-18.242-13.264-18.242 13.264 6.899-21.407-18.242-13.264h22.545l7.006-21.407 7.006 21.407h22.545l-18.172 13.157z m0-108.815l6.899 21.407-18.242-13.264-18.242 13.264 6.899-21.407-18.242-13.264h22.545l7.006-21.407 7.006 21.407h22.545l-18.172 13.264z m0-108.851l6.899 21.407-18.242-13.264-18.242 13.264 6.899-21.407-18.242-13.264h22.545l7.006-21.407 7.006 21.407h22.545l-18.172 13.264z m63.44 272.145l6.898 21.407-18.136-13.264-18.242 13.264 7.006-21.407-18.242-13.264h22.545l7.006-21.407 6.898 21.407h22.545l-18.278 13.264z m0-108.851l6.898 21.407-18.136-13.264-18.242 13.264 6.898-21.407-18.242-13.264h22.545l7.006-21.407 6.898 21.407h22.545l-18.172 13.264z m0-108.922l6.898 21.407-18.136-13.122-18.242 13.264 7.006-21.407-18.242-13.264h22.545l7.006-21.407 6.898 21.407h22.545l-18.278 13.122z m0-108.85l6.898 21.407-18.136-13.264-18.242 13.264 7.006-21.407-18.35-13.264h22.545l7.006-21.407 6.898 21.407h22.545l-18.172 13.264z m70.552 402.51l-18.35-13.264-18.242 13.264 6.898-21.407-18.136-13.371h22.545l6.899-21.407 7.006 21.407h22.545l-18.242 13.371 7.077 21.407z m-7.04-130.366l7.006 21.407-18.35-13.122-18.242 13.264 6.898-21.407-18.136-13.371h22.545l6.899-21.407 7.006 21.407h22.545l-18.172 13.229z m0-108.815l7.006 21.407-18.35-13.264-18.242 13.264 6.898-21.407-18.136-13.264h22.545l6.899-21.407 7.006 21.407h22.545l-18.172 13.264z m0-108.851l7.006 21.407-18.35-13.264-18.242 13.264 6.898-21.407-18.136-13.264h22.545l6.899-21.407 7.006 21.407h22.545l-18.172 13.264z m0-108.851l7.006 21.407-18.35-13.264-18.242 13.264 6.898-21.407-18.136-13.264h22.545l6.899-21.514 7.006 21.407h22.545l-18.172 13.371z" fill="#223BAE" p-id="19453"></path><path d="M323.991 44.308a448.534 448.534 0 0 0-26.173 11.45h22.439l3.734-11.45z" fill="#223BAE" p-id="19454"></path><path d="M309.055 90.394l18.242-13.264 18.242 13.264-6.899-21.407 18.242-13.264h-22.545l-4.445-13.691c-1.921 0.783-3.841 1.458-5.761 2.276l-3.734 11.45h-22.439L316.2 69.022l-7.148 21.372zM454.25 34.243l-6.898 21.514h-22.545l18.242 13.264-7.006 21.407 18.242-13.264 18.35 13.264-7.006-21.407 18.242-13.264h-22.545l-7.077-21.514z m-183.493 75.851l-7.006-21.372-6.899 21.407h-22.545l18.242 13.264-7.006 21.514 18.242-13.371 18.35 13.371-7.006-21.514 18.242-13.264h-22.617v-0.035z m126.987 0l-6.898-21.407-7.006 21.407h-22.545l18.242 13.264-6.899 21.514 18.242-13.371 18.242 13.371-7.006-21.514 18.35-13.264h-22.723z m-197.397 32.965l-7.006 21.514h-22.545l18.242 13.264-6.898 21.407 18.242-13.264 18.242 13.264-7.006-21.407 18.242-13.264h-22.545l-6.97-21.514z m126.952 0l-6.899 21.514h-22.545l18.136 13.264-6.899 21.407 18.242-13.264 18.242 13.264-6.899-21.407 18.242-13.264h-22.545l-7.077-21.514z m126.951 0l-6.898 21.514h-22.545l18.242 13.264-7.006 21.407 18.242-13.264 18.35 13.264-7.006-21.407 18.242-13.264h-22.545l-7.077-21.514z m-310.445 75.887l-7.006-21.407-7.006 21.407h-22.545l18.242 13.264-6.934 21.514 18.242-13.264 18.242 13.264-6.898-21.514 18.242-13.264h-22.581z m126.952 0l-7.006-21.407-6.899 21.407h-22.545l18.242 13.264-7.041 21.514 18.242-13.264 18.35 13.264-7.006-21.514 18.242-13.264h-22.581z m126.987 0l-6.898-21.407-7.006 21.407h-22.545l18.242 13.264-6.899 21.514 18.242-13.264 18.242 13.264-7.006-21.514 18.35-13.264h-22.723zM55.011 308.06l18.242-13.264 18.242 13.264-7.006-21.407 18.242-13.264H80.186l-4.552-13.904c-5.085 8.713-9.851 17.673-14.367 26.6l0.675 0.463-6.934 21.514z m145.336-56.15l-7.006 21.514h-22.545l18.242 13.264-6.898 21.407 18.242-13.264 18.242 13.264-7.006-21.407 18.242-13.264h-22.545l-6.97-21.514z m126.952 0l-6.899 21.514h-22.545l18.136 13.264-6.899 21.407 18.242-13.264 18.242 13.264-6.899-21.407 18.242-13.264h-22.545l-7.077-21.514z m126.951 0l-6.898 21.514h-22.545l18.242 13.264-7.006 21.407 18.242-13.264 18.35 13.264-7.006-21.407 18.242-13.264h-22.545l-7.077-21.514z m-310.445 75.993l-7.006-21.514-7.006 21.514h-22.545l18.242 13.264-6.934 21.372 18.242-13.264 18.242 13.264-6.898-21.407 18.242-13.264h-22.581v0.035z m126.952 0l-7.006-21.514-6.899 21.514h-22.545l18.242 13.264-7.041 21.372 18.242-13.264 18.35 13.264-7.006-21.407 18.242-13.264h-22.581v0.035z m126.987 0l-6.898-21.514-7.006 21.514h-22.545l18.242 13.264-6.899 21.407 18.242-13.264 18.242 13.264-7.006-21.407 18.35-13.264h-22.723zM73.253 360.868l-6.898 21.407H43.81l18.242 13.264-7.006 21.514 18.242-13.264 18.35 13.264-7.006-21.514 18.242-13.264H80.329l-7.077-21.407z m127.094 0l-7.006 21.407h-22.545l18.242 13.264-6.898 21.514 18.242-13.264 18.242 13.264-7.006-21.514 18.242-13.264h-22.545l-6.97-21.407z m126.952 0l-6.899 21.407h-22.545l18.136 13.264-6.899 21.514 18.242-13.264 18.242 13.264-6.899-21.514 18.242-13.264h-22.545l-7.077-21.407z m126.951 0l-6.898 21.407h-22.545l18.242 13.264-7.006 21.514 18.242-13.264 18.35 13.264-7.006-21.514 18.242-13.264h-22.545l-7.077-21.407zM28.092 471.39l-7.006-21.407 18.242-13.264H16.747l-2.17-6.579c-1.601 9.531-2.845 19.025-3.841 28.662L28.09 471.39z m115.713-34.672l-7.006-21.514-7.006 21.514h-22.545l18.242 13.264-6.898 21.407 18.242-13.264 18.242 13.264-6.898-21.407 18.242-13.264h-22.617z m126.952 0l-7.006-21.514-6.899 21.514h-22.545l18.242 13.264-7.006 21.407 18.242-13.264 18.35 13.264-7.006-21.407 18.242-13.264h-22.617z m126.987 0l-6.898-21.514-7.006 21.514h-22.545l18.242 13.264-6.899 21.407 18.242-13.264 18.242 13.264-7.006-21.407 18.35-13.264h-22.723zM80.294 491.09l-7.006-21.407-6.898 21.407H43.845l18.242 13.371-7.006 21.407 18.242-13.264 18.35 13.264-7.006-21.407 18.242-13.371H80.292z m126.952 0l-6.899-21.407-7.006 21.407h-22.545l18.242 13.371-6.898 21.407 18.242-13.264 18.242 13.264-7.006-21.407 18.242-13.371h-22.617z m127.058 0l-7.006-21.407-6.899 21.407h-22.545l18.136 13.371-6.898 21.407 18.242-13.264 18.242 13.264-6.899-21.407 18.242-13.371h-22.617z m126.951 0l-7.006-21.407-6.898 21.407h-22.545l18.242 13.371-7.006 21.407 18.242-13.264 18.35 13.264-7.006-21.407 18.242-13.371h-22.617z" fill="#FFFFFF" p-id="19455"></path></svg>