<?xml version="1.0" standalone="no"?><!DOCTYPE svg PUBLIC "-//W3C//DTD SVG 1.1//EN" "http://www.w3.org/Graphics/SVG/1.1/DTD/svg11.dtd"><svg t="1743152814953" class="icon" viewBox="0 0 1543 1024" version="1.1" xmlns="http://www.w3.org/2000/svg" p-id="13302" xmlns:xlink="http://www.w3.org/1999/xlink" width="30.13671875" height="20"><path d="M0 0h1543.168v1024H0V0z" fill="#FFFFFF" p-id="13303"></path><path d="M1016.32 489.472c12.8 138.24-89.088 259.584-227.328 272.384s-259.584-89.088-272.384-227.328 89.088-259.584 227.328-272.384c138.24-11.264 260.096 90.624 272.384 227.328z" fill="#CC303C" p-id="13304"></path><path d="M553.472 382.976c-36.352 58.88-17.408 135.68 42.496 172.032 58.88 36.352 135.68 16.384 172.032-42.496s113.152-77.824 172.032-42.496c58.88 36.352 77.824 113.152 42.496 172.032-71.68 117.76-225.792 155.648-344.064 83.968-118.784-71.168-156.672-224.256-84.992-343.04z" fill="#005C9E" p-id="13305"></path><path d="M235.008 310.784l140.288-207.872 32.256 21.504L267.264 332.8l-32.256-22.016z m50.176 33.792l140.288-207.872 32.256 21.504L317.44 366.592l-32.256-22.016z m49.664 34.304l32.768 21.504 140.8-208.384-32.768-22.528L334.848 378.88z m766.976 341.504l65.536-96.768 32.256 22.016-65.536 96.768-32.256-22.016z m-75.264 113.664l65.024-96.768 32.256 21.504-65.024 96.768-32.256-21.504z m124.416-78.848l65.536-96.768 32.256 22.016-65.536 96.768-32.256-22.016z m-74.24 112.128l32.768 21.504 65.024-96.768-32.768-21.504-65.024 96.768z m124.928-78.336l65.024-96.768 32.256 21.504-65.024 97.28-32.256-22.016z m-75.776 111.616l65.024-96.768 32.256 21.504-65.024 96.768-32.256-21.504z m91.136-534.016l32.768-21.504-140.8-208.384-32.768 21.504 140.8 208.384zM1126.4 123.904l32.256-22.016L1223.68 198.656l-32.256 22.016L1126.4 123.904z m75.776 113.152l32.256-22.016 65.536 96.768-32.256 22.016-65.536-96.768z m-176.128-45.056l32.256-21.504 65.024 96.768-32.256 21.504-65.024-96.768z m75.264 111.616l32.256-21.504L1198.592 378.88l-32.256 21.504-65.024-96.768z m-766.976 343.04l32.256-22.016L506.88 832.512l-32.256 22.016-140.288-207.872z m-99.328 67.072l32.256-21.504 140.288 208.384-32.256 21.504-140.288-208.384z m49.664-32.768l32.256-21.504 65.024 96.768-32.256 21.504L284.672 680.96z m140.8 207.36l32.768-21.504-65.024-96.768-32.768 21.504 65.024 96.768z" fill="#231815" p-id="13306"></path></svg>